<?xml version="1.0" standalone="no"?>
<!DOCTYPE svg PUBLIC "-//W3C//DTD SVG 20010904//EN"
 "http://www.w3.org/TR/2001/REC-SVG-20010904/DTD/svg10.dtd">
<svg version="1.0" xmlns="http://www.w3.org/2000/svg"
 width="7500.000000pt" height="5000.000000pt" viewBox="0 0 7500.000000 5000.000000"
 preserveAspectRatio="xMidYMid meet">

<g transform="translate(0.000000,5000.000000) scale(0.100000,-0.100000)"
fill="#000000" stroke="none">
<path d="M42500 39819 c-554 -65 -1009 -495 -1104 -1044 -14 -81 -16 -1000
-16 -9312 0 -5073 -2 -9223 -6 -9223 -3 0 -69 38 -147 84 -231 136 -443 249
-777 415 -615 306 -1267 588 -2350 1016 -1874 741 -2277 908 -2823 1173 -194
94 -220 104 -228 89 -21 -37 -96 -115 -158 -165 -170 -136 -466 -230 -876
-279 -239 -29 -1096 -25 -1630 6 -472 28 -834 31 -1223 12 -584 -29 -1022 6
-1322 106 -93 30 -223 94 -272 134 -20 16 -41 29 -46 29 -5 0 -43 -48 -85
-107 -455 -649 -770 -1365 -876 -1993 -46 -271 -53 -635 -16 -850 96 -567 381
-993 865 -1294 l74 -46 -78 0 c-196 0 -329 -71 -675 -360 -236 -197 -294 -242
-411 -321 -192 -129 -415 -224 -620 -264 -52 -10 -177 -20 -320 -25 -261 -10
-362 -26 -495 -79 -218 -87 -401 -258 -516 -481 -31 -60 -34 -72 -34 -155 0
-78 4 -97 28 -147 30 -62 83 -115 149 -150 l43 -23 1635 -5 1635 -5 189 -38
c915 -182 2250 -345 3386 -412 907 -53 1919 -59 2715 -15 536 30 1395 110
1568 146 20 4 27 2 27 -11 0 -8 7 -18 16 -22 38 -14 82 -72 94 -123 27 -111
-11 -210 -264 -700 -351 -679 -528 -1083 -817 -1864 -217 -587 -376 -954 -655
-1516 -350 -706 -685 -1299 -1117 -1978 l-129 -203 12 -72 c7 -40 19 -89 26
-111 8 -21 14 -43 14 -48 0 -12 -169 -92 -335 -158 -353 -140 -524 -259 -602
-418 -34 -68 -38 -84 -41 -172 -5 -114 9 -192 73 -420 119 -423 139 -542 139
-830 1 -226 -9 -314 -59 -540 -45 -200 -57 -328 -52 -540 4 -169 8 -208 30
-294 81 -303 230 -433 572 -498 101 -19 156 -21 668 -25 728 -6 857 5 934 82
27 27 33 41 33 76 0 63 -33 125 -148 278 -160 213 -245 386 -302 615 -103 410
-44 889 170 1391 79 186 241 495 260 495 4 0 72 -16 151 -34 141 -34 366 -76
407 -76 43 0 712 666 1223 1218 1557 1680 3184 3812 4498 5892 68 107 157 245
197 305 73 110 103 172 124 253 l11 42 7325 0 c5147 0 7353 3 7421 11 307 34
554 155 773 378 213 217 329 463 360 762 14 142 14 21156 0 21298 -45 438
-306 816 -700 1016 -88 44 -191 80 -308 107 l-97 23 -7520 1 c-4218 1 -7553
-2 -7595 -7z m15105 -672 c106 -33 195 -86 275 -167 82 -82 126 -154 159 -264
l21 -68 0 -10612 c0 -9447 -2 -10618 -15 -10671 -55 -215 -219 -382 -445 -453
-52 -16 -499 -17 -7456 -19 l-7401 -3 -13 40 c-8 24 -10 44 -4 48 5 5 42 34
81 66 267 214 396 541 363 920 -27 311 -150 672 -322 951 -160 258 -428 552
-720 789 l-88 71 0 9425 c0 8264 2 9433 15 9487 57 242 270 436 519 473 28 4
3408 7 7511 6 7192 -1 7462 -2 7520 -19z"/>
<path d="M45665 37730 c-216 -16 -408 -55 -451 -91 -10 -8 -14 -40 -14 -114 0
-98 1 -105 25 -123 31 -25 120 -47 276 -69 179 -25 731 -25 909 0 137 19 229
41 272 63 l28 15 0 113 0 114 -32 15 c-103 48 -329 76 -653 82 -132 2 -294 0
-360 -5z"/>
<path d="M52680 37149 c-227 -23 -429 -77 -590 -156 -96 -48 -127 -69 -191
-132 -83 -83 -130 -163 -149 -257 -7 -31 -10 -58 -7 -60 2 -2 975 -44 2163
-94 1187 -49 2211 -91 2274 -94 l115 -5 -1610 404 -1610 404 -155 -1 c-85 0
-193 -5 -240 -9z"/>
<path d="M44967 36033 c-19 -149 -28 -546 -25 -1158 l3 -680 120 -12 c317 -31
479 -38 900 -38 262 0 505 6 600 13 206 16 364 31 393 38 l22 4 0 813 c0 446
-3 863 -7 925 l-6 113 -176 -8 c-321 -15 -1219 -9 -1501 11 -140 9 -269 19
-286 22 -31 6 -31 5 -37 -43z"/>
<path d="M54386 29564 c-171 -26 -380 -94 -528 -171 -38 -20 -68 -39 -68 -43
0 -4 14 -10 31 -14 48 -9 104 -72 123 -138 34 -116 -27 -161 -222 -162 -70 -1
-95 -4 -80 -10 13 -5 74 -33 136 -63 220 -107 281 -222 164 -311 -31 -24 -44
-27 -111 -27 -64 1 -85 5 -131 29 -81 42 -134 81 -211 153 l-69 65 -75 -70
c-197 -184 -350 -258 -458 -223 -45 15 -92 68 -108 120 -34 112 53 202 268
276 67 23 67 24 28 24 -60 1 -161 19 -242 43 l-72 21 -93 -32 c-705 -245
-1178 -910 -1178 -1654 1 -607 278 -1092 769 -1346 144 -74 288 -124 445 -156
595 -119 1251 19 1696 357 l90 68 150 -12 c254 -20 518 11 748 87 479 160 816
515 946 998 48 173 60 270 60 462 0 206 -16 323 -70 501 -87 290 -236 536
-450 746 -121 118 -140 132 -209 155 -33 12 -67 24 -76 28 -9 3 29 -40 85 -97
110 -111 156 -185 156 -249 0 -96 -119 -148 -227 -99 -78 35 -171 147 -246
297 l-36 71 -98 -43 c-156 -70 -266 -98 -372 -93 -96 3 -123 15 -165 71 -27
36 -34 133 -12 175 35 68 134 104 291 106 l102 1 -77 36 c-42 20 -111 59 -153
88 l-76 51 -143 -1 c-79 -1 -183 -7 -232 -15z m1412 -1035 c132 -64 227 -197
272 -379 40 -161 37 -503 -5 -566 -25 -38 -60 -55 -123 -61 -131 -12 -303 62
-454 196 -62 55 -121 172 -138 273 -16 93 -8 233 19 318 72 231 235 314 429
219z m-1624 -139 c77 -26 119 -53 190 -120 99 -94 167 -208 230 -388 90 -258
79 -332 -53 -383 -120 -46 -365 -16 -512 62 -79 42 -149 121 -199 222 -53 109
-70 181 -70 299 0 157 45 254 142 302 67 34 185 36 272 6z"/>
<path d="M45097 23080 c-118 -20 -230 -65 -284 -113 -22 -19 -22 -19 -120 6
-273 72 -509 58 -698 -41 -80 -42 -189 -141 -233 -210 -112 -176 -121 -570
-27 -1137 102 -615 311 -1317 498 -1680 86 -167 194 -256 362 -300 84 -21 234
-20 320 4 67 19 69 19 92 1 57 -45 220 -79 374 -80 l86 0 -4 126 c-3 108 -6
130 -24 155 -11 16 -31 55 -44 87 -77 189 -82 536 -9 649 12 19 11 27 -5 65
-52 117 -55 328 -7 453 52 135 108 197 271 296 179 109 548 275 865 389 96 35
180 68 187 74 18 17 36 403 30 636 -5 235 -17 287 -75 352 -69 76 -162 118
-315 143 -105 17 -350 20 -476 5 l-85 -10 -50 34 c-63 41 -149 73 -244 92 -79
15 -304 17 -385 4z m1196 -200 c69 -60 128 -215 113 -295 -17 -87 -105 -123
-161 -67 -64 64 -117 272 -84 333 11 21 66 59 86 59 7 0 27 -13 46 -30z
m-2077 -61 c19 -18 37 -47 40 -65 22 -118 -132 -404 -260 -483 -45 -28 -114
-28 -150 0 -39 31 -56 71 -56 133 0 67 24 133 76 212 45 69 165 198 209 226
43 27 98 18 141 -23z"/>
<path d="M32466 37989 c-226 -29 -468 -139 -713 -323 -506 -380 -849 -981
-954 -1669 -29 -188 -36 -518 -16 -707 34 -309 101 -566 201 -755 l53 -104
-22 -39 c-67 -117 -160 -225 -323 -376 -440 -403 -960 -657 -1497 -730 -263
-35 -495 -29 -762 20 -156 28 -153 28 -153 9 0 -17 36 -28 195 -56 170 -30
490 -37 679 -15 498 58 980 265 1411 605 l90 72 -99 -97 c-219 -212 -458 -380
-738 -519 -350 -174 -602 -261 -1148 -396 -685 -170 -881 -235 -1233 -411
-1123 -560 -1961 -1596 -2266 -2799 -87 -343 -121 -604 -128 -986 -6 -295 3
-465 37 -718 10 -77 24 -212 30 -300 13 -190 32 -329 66 -484 23 -100 32 -124
77 -190 109 -164 279 -351 439 -484 70 -59 220 -162 277 -192 l34 -17 -6 31
c-12 57 -46 344 -58 486 -18 208 -16 648 5 835 30 283 84 531 161 746 35 99
183 409 191 401 3 -2 -7 -49 -20 -103 -176 -699 -143 -1586 84 -2290 38 -116
99 -284 103 -284 1 0 40 -7 87 -15 124 -23 336 -30 465 -16 212 23 325 53 700
186 579 205 1182 228 1775 69 51 -13 94 -23 96 -21 4 4 -85 533 -115 682 -10
55 -61 300 -111 545 -204 989 -294 1508 -347 1990 -22 210 -25 705 -4 820 64
356 277 640 689 922 57 38 106 76 109 84 3 8 16 12 34 10 16 -2 27 0 24 4 -12
20 440 225 800 363 210 80 475 167 509 167 25 0 241 77 296 105 19 10 45 45
78 102 277 494 524 1079 587 1386 l24 119 -50 74 c-27 41 -48 74 -45 74 3 0
-9 29 -25 65 -77 170 -91 392 -34 544 15 41 40 96 57 122 l30 49 -35 40 c-98
114 -167 325 -186 563 -11 134 0 229 35 304 59 124 142 177 279 178 71 0 88
-4 147 -33 45 -22 84 -52 125 -95 l58 -63 105 70 c299 199 577 426 866 707
183 178 261 231 411 279 51 16 125 32 165 36 l73 6 -75 -34 c-171 -77 -281
-168 -450 -373 -180 -218 -229 -256 -509 -384 -237 -110 -338 -181 -413 -289
-63 -92 -70 -130 -79 -432 -8 -313 -12 -335 -104 -620 -88 -274 -108 -365
-109 -505 -1 -114 0 -120 19 -120 19 0 20 7 22 97 2 134 23 228 108 483 108
323 110 336 107 613 -2 257 7 331 53 422 60 119 155 189 421 313 265 122 340
179 499 372 193 234 365 358 586 421 84 24 96 26 148 15 189 -41 466 -240 637
-457 111 -142 221 -353 269 -519 89 -305 87 -275 21 -275 -171 0 -326 -85
-326 -179 0 -44 21 -67 74 -82 46 -13 118 5 241 60 53 24 91 36 94 30 8 -25
103 152 147 275 l28 79 17 -74 c21 -90 60 -186 173 -431 151 -328 194 -490
203 -778 8 -234 -11 -386 -79 -628 -17 -61 -28 -115 -25 -118 18 -19 37 15 66
118 113 411 103 829 -29 1213 -23 66 -84 206 -135 311 -147 302 -181 419 -163
564 21 160 -8 394 -72 595 -36 113 -151 407 -185 475 -13 25 -26 68 -30 95
-12 80 -44 174 -88 260 -32 61 -64 102 -137 176 -215 216 -504 352 -809 378
-82 8 -151 25 -422 110 -401 124 -544 164 -729 201 -238 48 -457 61 -634 39z
m2165 -484 c284 -122 506 -333 584 -556 9 -24 14 -41 11 -38 -2 2 -36 53 -76
113 -150 224 -363 399 -610 501 -45 18 -84 35 -87 39 -12 11 97 -25 178 -59z
m-5586 -4544 c-14 -12 -132 -50 -399 -126 -363 -104 -605 -200 -921 -364 -586
-304 -1124 -765 -1545 -1326 -321 -427 -603 -964 -784 -1493 -152 -445 -262
-972 -283 -1365 -5 -92 -9 -115 -17 -100 -16 27 -15 728 2 863 26 209 63 419
107 595 165 669 488 1289 940 1805 442 504 1031 921 1635 1158 228 89 349 125
830 248 239 61 437 112 440 113 2 0 0 -3 -5 -8z"/>
<path d="M33451 35775 c-62 -18 -162 -69 -186 -95 -16 -18 -15 -19 17 -24 18
-3 78 -8 133 -11 269 -16 441 -84 640 -254 80 -69 131 -98 206 -117 141 -36
204 35 129 148 -73 111 -337 269 -555 333 -114 34 -299 44 -384 20z"/>
<path d="M33465 35334 c-60 -10 -141 -36 -182 -60 -35 -20 -43 -30 -43 -53 0
-15 8 -35 18 -44 24 -22 148 -38 277 -37 55 1 126 1 158 1 l57 -1 -27 -41
c-56 -84 -38 -206 39 -260 33 -24 124 -37 172 -25 38 9 93 63 106 102 l12 36
24 -23 c14 -13 40 -54 59 -92 40 -81 42 -78 15 27 -69 270 -298 460 -569 471
-47 2 -99 1 -116 -1z"/>
<path d="M34950 34831 c-90 -28 -166 -96 -206 -188 -42 -95 -28 -106 56 -43
l54 40 19 -33 c26 -45 92 -87 137 -87 83 1 180 79 180 146 0 31 3 35 18 29 94
-40 176 -42 170 -4 -2 15 -18 25 -54 38 -28 9 -73 31 -100 49 -28 17 -69 38
-93 47 -45 16 -138 19 -181 6z"/>
<path d="M33736 33842 c-21 -14 -34 -28 -28 -30 10 -3 92 46 92 54 0 11 -29 0
-64 -24z"/>
<path d="M34522 33588 c-14 -14 -16 -64 -3 -72 5 -3 11 13 13 37 6 49 5 50
-10 35z"/>
<path d="M34914 33327 c-42 -54 -184 -201 -629 -653 -107 -109 -154 -139 -241
-155 -109 -20 -343 25 -573 111 -61 24 -114 41 -116 38 -7 -6 -66 -349 -63
-360 5 -14 316 -122 458 -159 338 -88 815 -242 954 -309 135 -66 322 -208 480
-366 271 -269 463 -580 582 -944 l38 -115 13 45 c58 194 88 463 79 695 -26
665 -303 1360 -849 2127 -38 54 -72 100 -77 103 -4 2 -29 -23 -56 -58z"/>
<path d="M31150 31810 c-9 -6 -10 -10 -3 -10 6 0 15 5 18 10 8 12 4 12 -15 0z"/>
<path d="M30899 31693 c-13 -15 -12 -15 9 -4 23 12 28 21 13 21 -5 0 -15 -7
-22 -17z"/>
<path d="M30736 31641 c-4 -5 3 -7 14 -4 23 6 26 13 6 13 -8 0 -17 -4 -20 -9z"/>
<path d="M30596 31562 c-3 -5 1 -9 9 -9 8 0 12 4 9 9 -3 4 -7 8 -9 8 -2 0 -6
-4 -9 -8z"/>
<path d="M30580 31520 c-9 -6 -10 -10 -3 -10 6 0 15 5 18 10 8 12 4 12 -15 0z"/>
<path d="M30506 31504 c-10 -7 -13 -15 -8 -18 6 -3 13 1 16 10 3 8 10 13 15 9
5 -3 12 -2 15 3 8 13 -19 10 -38 -4z"/>
<path d="M30420 31444 c-8 -8 -9 -14 -4 -13 21 4 26 -2 13 -18 -13 -16 -12
-17 4 -4 12 9 14 17 7 26 -5 6 -7 15 -3 18 3 4 4 7 1 7 -3 0 -11 -7 -18 -16z"/>
<path d="M29840 31380 c0 -5 5 -10 11 -10 5 0 7 5 4 10 -3 6 -8 10 -11 10 -2
0 -4 -4 -4 -10z"/>
<path d="M30294 31348 l-19 -23 23 19 c21 18 27 26 19 26 -2 0 -12 -10 -23
-22z"/>
<path d="M30261 31266 c-9 -11 -9 -16 1 -22 7 -4 10 -4 6 1 -4 4 -3 14 3 22 6
7 9 13 6 13 -2 0 -10 -6 -16 -14z"/>
<path d="M30365 31190 c-4 -6 -11 -7 -17 -4 -7 4 -8 2 -4 -5 6 -9 11 -9 22 0
14 11 18 19 10 19 -3 0 -8 -5 -11 -10z"/>
<path d="M30450 31091 c0 -6 4 -13 10 -16 6 -3 7 1 4 9 -7 18 -14 21 -14 7z"/>
<path d="M30560 31006 c0 -2 8 -10 18 -17 15 -13 16 -12 3 4 -13 16 -21 21
-21 13z"/>
<path d="M30550 30966 c0 -2 8 -10 18 -17 15 -13 16 -12 3 4 -13 16 -21 21
-21 13z"/>
<path d="M30610 30940 c6 -11 13 -20 16 -20 2 0 0 9 -6 20 -6 11 -13 20 -16
20 -2 0 0 -9 6 -20z"/>
<path d="M30650 30866 c0 -2 7 -7 16 -10 8 -3 12 -2 9 4 -6 10 -25 14 -25 6z"/>
<path d="M30696 30807 c3 -10 9 -15 12 -12 3 3 0 11 -7 18 -10 9 -11 8 -5 -6z"/>
<path d="M30686 30777 c3 -10 9 -15 12 -12 3 3 0 11 -7 18 -10 9 -11 8 -5 -6z"/>
<path d="M30715 30710 c3 -5 8 -10 11 -10 2 0 4 5 4 10 0 6 -5 10 -11 10 -5 0
-7 -4 -4 -10z"/>
<path d="M30824 30537 c0 -25 3 -43 6 -40 3 2 5 8 5 11 0 4 4 13 9 21 7 10 6
12 -4 6 -9 -6 -12 -4 -8 7 4 8 3 20 -2 27 -4 7 -7 -7 -6 -32z"/>
<path d="M30880 30361 c0 -6 4 -13 10 -16 6 -3 7 1 4 9 -7 18 -14 21 -14 7z"/>
<path d="M31010 30121 c0 -6 4 -13 10 -16 6 -3 7 1 4 9 -7 18 -14 21 -14 7z"/>
<path d="M39085 29955 c-407 -79 -763 -148 -791 -154 -62 -14 -116 -62 -148
-130 l-21 -46 -3 -1839 c-1 -1283 1 -1850 8 -1878 19 -70 61 -102 206 -158 72
-27 146 -50 164 -50 19 0 387 68 819 151 890 170 841 155 896 264 l30 59 3
709 c2 675 2 708 -15 703 -57 -18 -231 -48 -308 -53 -106 -7 -194 13 -220 49
-21 32 -19 106 5 146 11 18 20 36 20 40 0 5 -55 8 -122 8 -151 -1 -206 18
-235 80 -17 35 -21 38 -66 41 -70 5 -104 26 -116 71 -35 128 141 315 499 532
84 51 124 80 112 83 -9 2 -80 2 -157 -1 -212 -7 -273 18 -282 114 -11 108 69
190 280 289 151 71 409 149 560 170 l47 6 0 347 c0 208 -4 362 -10 384 -19 68
-49 91 -198 152 -93 37 -152 56 -178 55 -21 0 -372 -65 -779 -144z"/>
<path d="M31000 30056 c0 -2 8 -10 18 -17 15 -13 16 -12 3 4 -13 16 -21 21
-21 13z"/>
<path d="M31046 30027 c3 -10 9 -15 12 -12 3 3 0 11 -7 18 -10 9 -11 8 -5 -6z"/>
<path d="M31063 29965 c0 -8 4 -12 9 -9 5 3 6 10 3 15 -9 13 -12 11 -12 -6z"/>
<path d="M35596 29967 c3 -10 9 -15 12 -12 3 3 0 11 -7 18 -10 9 -11 8 -5 -6z"/>
<path d="M31056 29920 c4 -14 11 -32 16 -40 8 -12 8 -11 4 3 -3 10 -1 28 6 40
10 19 9 20 -4 9 -13 -10 -17 -10 -22 0 -3 7 -3 2 0 -12z"/>
<path d="M31095 29879 c-4 -6 -5 -12 -2 -15 2 -3 7 2 10 11 7 17 1 20 -8 4z"/>
<path d="M35630 29736 c0 -2 9 -6 20 -9 11 -3 18 -1 14 4 -5 9 -34 13 -34 5z"/>
<path d="M35656 29637 c3 -10 9 -15 12 -12 3 3 0 11 -7 18 -10 9 -11 8 -5 -6z"/>
<path d="M31226 29433 c-6 -14 -5 -15 5 -6 7 7 10 15 7 18 -3 3 -9 -2 -12 -12z"/>
<path d="M31255 29320 c3 -5 8 -10 11 -10 2 0 4 5 4 10 0 6 -5 10 -11 10 -5 0
-7 -4 -4 -10z"/>
<path d="M35850 29039 c0 -5 5 -7 10 -4 6 3 10 8 10 11 0 2 -4 4 -10 4 -5 0
-10 -5 -10 -11z"/>
<path d="M35896 28917 c3 -10 9 -15 12 -12 3 3 0 11 -7 18 -10 9 -11 8 -5 -6z"/>
<path d="M35929 28843 c-13 -16 -12 -17 4 -4 9 7 17 15 17 17 0 8 -8 3 -21
-13z"/>
<path d="M36010 28611 c0 -6 4 -13 10 -16 6 -3 7 1 4 9 -7 18 -14 21 -14 7z"/>
<path d="M31455 28589 c-4 -6 -5 -12 -2 -15 2 -3 7 2 10 11 7 17 1 20 -8 4z"/>
<path d="M31486 28577 c3 -10 9 -15 12 -12 3 3 0 11 -7 18 -10 9 -11 8 -5 -6z"/>
<path d="M31471 28504 c0 -11 3 -14 6 -6 3 7 2 16 -1 19 -3 4 -6 -2 -5 -13z"/>
<path d="M31496 28511 c-3 -5 2 -15 12 -22 15 -12 16 -12 5 2 -7 9 -10 19 -6
22 3 4 4 7 0 7 -3 0 -8 -4 -11 -9z"/>
<path d="M31531 28394 c0 -11 3 -14 6 -6 3 7 2 16 -1 19 -3 4 -6 -2 -5 -13z"/>
<path d="M31515 28330 c3 -5 8 -10 11 -10 2 0 4 5 4 10 0 6 -5 10 -11 10 -5 0
-7 -4 -4 -10z"/>
<path d="M36065 28309 c-4 -6 -5 -12 -2 -15 2 -3 7 2 10 11 7 17 1 20 -8 4z"/>
<path d="M36071 28244 c0 -11 3 -14 6 -6 3 7 2 16 -1 19 -3 4 -6 -2 -5 -13z"/>
<path d="M36091 28124 c0 -11 3 -14 6 -6 3 7 2 16 -1 19 -3 4 -6 -2 -5 -13z"/>
<path d="M36112 28120 c0 -14 2 -19 5 -12 2 6 2 18 0 25 -3 6 -5 1 -5 -13z"/>
<path d="M36117 28031 c-4 -17 -3 -21 5 -13 5 5 8 16 6 23 -3 8 -7 3 -11 -10z"/>
<path d="M36112 27890 c0 -14 2 -19 5 -12 2 6 2 18 0 25 -3 6 -5 1 -5 -13z"/>
<path d="M31619 27867 c6 -8 8 -17 4 -20 -3 -4 -1 -7 5 -7 14 0 14 2 6 24 -3
9 -11 16 -16 16 -7 0 -6 -5 1 -13z"/>
<path d="M31646 27867 c3 -10 9 -15 12 -12 3 3 0 11 -7 18 -10 9 -11 8 -5 -6z"/>
<path d="M36111 27834 c0 -11 3 -14 6 -6 3 7 2 16 -1 19 -3 4 -6 -2 -5 -13z"/>
<path d="M36083 27695 c0 -8 4 -12 9 -9 5 3 6 10 3 15 -9 13 -12 11 -12 -6z"/>
<path d="M31660 27660 c0 -11 2 -20 4 -20 2 0 6 9 9 20 3 11 1 20 -4 20 -5 0
-9 -9 -9 -20z"/>
<path d="M31711 27574 c0 -11 3 -14 6 -6 3 7 2 16 -1 19 -3 4 -6 -2 -5 -13z"/>
<path d="M35964 27388 c-4 -7 -4 -10 1 -6 4 4 14 3 21 -3 9 -7 14 -6 20 3 4 7
4 10 -1 6 -4 -4 -14 -3 -21 3 -9 7 -14 6 -20 -3z"/>
<path d="M35966 27333 c-6 -14 -5 -15 5 -6 7 7 10 15 7 18 -3 3 -9 -2 -12 -12z"/>
<path d="M35825 27209 c-4 -6 -5 -12 -2 -15 2 -3 7 2 10 11 7 17 1 20 -8 4z"/>
<path d="M35785 27180 c-3 -5 -2 -10 4 -10 5 0 13 5 16 10 3 6 2 10 -4 10 -5
0 -13 -4 -16 -10z"/>
<path d="M33875 27101 c-3 -5 -2 -12 3 -15 5 -3 9 1 9 9 0 17 -3 19 -12 6z"/>
<path d="M33919 27093 c-13 -16 -12 -17 4 -4 16 13 21 21 13 21 -2 0 -10 -8
-17 -17z"/>
<path d="M35660 27070 c-9 -6 -10 -10 -3 -10 6 0 15 5 18 10 8 12 4 12 -15 0z"/>
<path d="M32690 27016 c0 -2 7 -7 16 -10 8 -3 12 -2 9 4 -6 10 -25 14 -25 6z"/>
<path d="M33606 27008 c3 -5 10 -6 15 -3 13 9 11 12 -6 12 -8 0 -12 -4 -9 -9z"/>
<path d="M33560 26999 c0 -5 5 -7 10 -4 6 3 10 8 10 11 0 2 -4 4 -10 4 -5 0
-10 -5 -10 -11z"/>
<path d="M33170 26966 c0 -2 7 -7 16 -10 8 -3 12 -2 9 4 -6 10 -25 14 -25 6z"/>
<path d="M31936 26703 c-6 -14 -5 -15 5 -6 7 7 10 15 7 18 -3 3 -9 -2 -12 -12z"/>
<path d="M31985 26640 c3 -5 8 -10 11 -10 2 0 4 5 4 10 0 6 -5 10 -11 10 -5 0
-7 -4 -4 -10z"/>
<path d="M35250 26596 c0 -2 7 -7 16 -10 8 -3 12 -2 9 4 -6 10 -25 14 -25 6z"/>
<path d="M35548 26593 c7 -3 16 -2 19 1 4 3 -2 6 -13 5 -11 0 -14 -3 -6 -6z"/>
<path d="M35445 26570 c-3 -5 1 -10 10 -10 9 0 13 5 10 10 -3 6 -8 10 -10 10
-2 0 -7 -4 -10 -10z"/>
<path d="M35733 26545 c0 -8 4 -12 9 -9 5 3 6 10 3 15 -9 13 -12 11 -12 -6z"/>
<path d="M35118 26543 c7 -3 16 -2 19 1 4 3 -2 6 -13 5 -11 0 -14 -3 -6 -6z"/>
<path d="M35756 26512 c-3 -5 1 -9 9 -9 8 0 12 4 9 9 -3 4 -7 8 -9 8 -2 0 -6
-4 -9 -8z"/>
<path d="M35776 26473 c-6 -14 -5 -15 5 -6 7 7 10 15 7 18 -3 3 -9 -2 -12 -12z"/>
<path d="M32028 26463 c6 -2 18 -2 25 0 6 3 1 5 -13 5 -14 0 -19 -2 -12 -5z"/>
<path d="M31341 26456 c2 -2 15 -9 29 -15 24 -11 24 -11 6 3 -16 13 -49 24
-35 12z"/>
<path d="M35795 26451 c-3 -5 -2 -12 3 -15 5 -3 9 1 9 9 0 17 -3 19 -12 6z"/>
<path d="M31736 26355 c-11 -8 -15 -15 -9 -15 6 0 16 7 23 15 16 19 11 19 -14
0z"/>
<path d="M33830 26366 c0 -2 7 -7 16 -10 8 -3 12 -2 9 4 -6 10 -25 14 -25 6z"/>
<path d="M33816 26342 c-3 -5 1 -9 9 -9 8 0 12 4 9 9 -3 4 -7 8 -9 8 -2 0 -6
-4 -9 -8z"/>
<path d="M33308 26333 c6 -2 18 -2 25 0 6 3 1 5 -13 5 -14 0 -19 -2 -12 -5z"/>
<path d="M31530 26310 c-9 -6 -10 -10 -3 -10 6 0 15 5 18 10 8 12 4 12 -15 0z"/>
<path d="M31415 26220 c-3 -6 1 -7 9 -4 18 7 21 14 7 14 -6 0 -13 -4 -16 -10z"/>
<path d="M35847 26205 c-4 -8 -3 -16 1 -19 4 -3 9 4 9 15 2 23 -3 25 -10 4z"/>
<path d="M31370 26200 c-9 -6 -10 -10 -3 -10 6 0 15 5 18 10 8 12 4 12 -15 0z"/>
<path d="M31307 26189 c7 -7 15 -10 18 -7 3 3 -2 9 -12 12 -14 6 -15 5 -6 -5z"/>
<path d="M31290 26160 c0 -5 5 -10 11 -10 5 0 7 5 4 10 -3 6 -8 10 -11 10 -2
0 -4 -4 -4 -10z"/>
<path d="M31096 26053 c-6 -14 -5 -15 5 -6 7 7 10 15 7 18 -3 3 -9 -2 -12 -12z"/>
<path d="M35960 26019 c0 -5 5 -7 10 -4 6 3 10 8 10 11 0 2 -4 4 -10 4 -5 0
-10 -5 -10 -11z"/>
<path d="M30980 25979 c-12 -8 -11 -9 5 -7 11 2 19 -2 18 -9 -2 -7 4 -10 12
-7 8 4 15 11 15 17 0 6 -3 7 -7 4 -3 -4 -11 -3 -17 3 -7 5 -17 5 -26 -1z"/>
<path d="M36020 25961 c0 -10 19 -25 25 -20 1 2 -3 10 -11 17 -8 7 -14 8 -14
3z"/>
<path d="M30936 25908 c3 -5 10 -6 15 -3 13 9 11 12 -6 12 -8 0 -12 -4 -9 -9z"/>
<path d="M36086 25907 c3 -10 9 -15 12 -12 3 3 0 11 -7 18 -10 9 -11 8 -5 -6z"/>
<path d="M36125 25851 c-3 -5 -2 -12 3 -15 5 -3 9 1 9 9 0 17 -3 19 -12 6z"/>
<path d="M30775 25780 c-3 -6 1 -7 9 -4 18 7 21 14 7 14 -6 0 -13 -4 -16 -10z"/>
<path d="M36238 25783 c7 -3 16 -2 19 1 4 3 -2 6 -13 5 -11 0 -14 -3 -6 -6z"/>
<path d="M8570 25738 c0 -14 -6 -43 -14 -65 l-14 -40 82 -7 c111 -8 224 -38
324 -86 108 -51 161 -89 251 -174 85 -82 144 -162 194 -262 54 -108 642 -1994
628 -2014 -47 -65 -60 -136 -41 -207 17 -58 83 -130 129 -139 19 -4 36 -15 42
-28 5 -12 628 -2000 1383 -4419 756 -2419 1380 -4405 1386 -4413 8 -9 31 -14
62 -14 27 0 422 27 878 60 456 33 838 60 849 60 19 0 18 -3 -11 -44 -50 -72
-52 -178 -3 -250 l25 -36 -1205 -3176 c-914 -2408 -1205 -3185 -1205 -3217 0
-44 20 -77 57 -96 15 -8 251 -11 815 -11 l793 -1 -35 -27 c-220 -170 -330
-387 -330 -652 0 -213 72 -398 213 -548 104 -110 258 -196 406 -228 85 -18
257 -18 343 1 292 61 523 285 598 579 27 108 28 283 0 390 -17 68 -67 196 -76
196 -2 0 -141 -83 -310 -185 -325 -196 -341 -203 -404 -170 -35 18 -60 62 -60
104 0 17 51 187 114 378 62 191 116 358 120 370 l7 23 -983 2 -984 3 1178
3104 c648 1707 1179 3105 1180 3107 2 1 1785 133 3963 293 2178 160 3977 294
3997 297 165 25 229 239 110 367 -14 15 -21 27 -15 27 7 0 321 22 700 50 378
27 724 52 768 54 221 13 882 66 897 71 9 4 19 14 23 23 7 18 48 225 91 462 15
80 74 402 131 715 58 314 115 631 128 705 28 160 903 4945 910 4976 3 15 15
24 38 28 42 8 109 64 131 110 18 38 22 140 7 179 -15 39 -73 99 -111 115 -26
11 -550 48 -2090 149 -1130 74 -2127 138 -2215 143 -88 5 -2871 185 -6185 400
-3314 214 -6037 390 -6050 390 -24 0 -33 26 -325 963 -210 673 -313 988 -342
1048 -161 329 -497 560 -855 586 l-88 6 0 -25z m3298 -3117 c838 -55 1526
-101 1528 -104 9 -9 476 -2378 471 -2384 -6 -6 -2756 62 -2761 69 -2 2 -746
2412 -772 2501 -3 9 -2 17 3 17 4 0 694 -45 1531 -99z m3182 -206 c817 -52
1503 -98 1526 -100 l40 -6 23 -366 c12 -201 25 -418 27 -482 3 -64 10 -177 15
-251 32 -442 75 -1146 70 -1151 -5 -6 -202 -1 -1136 26 -104 3 -505 12 -890
21 -385 9 -703 19 -708 23 -5 6 -477 2354 -477 2377 0 6 -65 10 1510 -91z
m3090 -201 c729 -47 1328 -89 1332 -93 7 -6 -26 -2129 -33 -2135 -5 -4 -2541
62 -2545 67 -3 3 -43 611 -64 987 -14 239 -25 422 -55 870 -14 201 -25 371
-25 378 0 7 13 12 33 12 17 0 628 -39 1357 -86z m2775 -180 c655 -42 1193 -79
1197 -83 5 -5 -138 -1604 -167 -1862 l-7 -55 -86 42 c-335 164 -1148 331
-1322 271 -34 -12 -35 -14 -59 -116 -17 -73 -21 -108 -14 -120 16 -26 98 -71
207 -115 l102 -41 -180 2 c-319 5 -1000 24 -1005 29 -7 6 29 2116 36 2127 3 5
28 6 56 3 29 -3 588 -40 1242 -82z m1605 -105 c85 -6 193 -13 240 -15 261 -14
1763 -114 1767 -118 5 -5 -303 -1823 -322 -1905 l-6 -23 -352 6 c-194 4 -431
9 -527 11 -96 2 -402 9 -680 15 -278 7 -521 15 -540 18 l-36 7 93 1000 c51
550 95 1006 98 1013 3 9 20 11 57 7 29 -3 123 -10 208 -16z m3088 -198 c497
-33 906 -61 908 -64 3 -3 -71 -421 -164 -929 l-169 -923 -99 0 c-166 1 -1729
47 -1733 51 -3 2 12 104 32 227 98 594 279 1664 283 1680 3 9 13 17 22 17 9 0
423 -27 920 -59z m-12956 -1705 c681 -17 1240 -35 1244 -39 7 -6 117 -545 129
-628 3 -24 10 -57 15 -74 5 -16 22 -100 38 -185 37 -192 35 -184 61 -305 12
-55 26 -127 31 -160 13 -75 31 -169 112 -567 36 -175 63 -319 61 -322 -2 -2
-22 3 -44 10 -240 83 -690 -2 -856 -161 l-47 -45 -79 11 c-117 17 -372 6 -470
-21 -198 -53 -342 -154 -443 -310 -62 -97 -78 -160 -79 -315 0 -71 2 -157 5
-190 l5 -60 -69 0 -70 0 -523 1695 c-288 932 -523 1696 -523 1697 0 7 354 0
1502 -31z m1973 -51 c281 -8 701 -19 935 -25 515 -11 1204 -30 1206 -33 0 -2
83 -1361 164 -2701 11 -176 18 -321 17 -322 -1 -1 -294 -16 -652 -33 -357 -17
-671 -32 -696 -34 l-46 -4 -12 136 c-32 361 -82 609 -141 691 -101 142 -403
178 -795 96 -64 -14 -112 -20 -116 -14 -3 5 -11 39 -18 76 -22 125 -92 486
-126 647 -18 88 -45 221 -59 295 -14 74 -30 155 -36 180 -5 25 -12 56 -14 70
-2 14 -12 59 -21 100 -9 41 -24 122 -34 180 -11 58 -46 240 -80 405 -34 164
-61 300 -61 302 0 4 27 4 585 -12z m3669 -95 c626 -16 1140 -31 1143 -33 2 -2
-1 -213 -6 -468 -5 -255 -17 -891 -27 -1414 -9 -522 -17 -951 -18 -952 -1 -1
-228 -13 -506 -28 -1002 -52 -1780 -88 -1786 -83 -1 2 -12 154 -23 338 -12
184 -23 351 -26 370 -4 29 -30 423 -49 755 -3 44 -21 332 -40 640 -20 308 -38
598 -40 645 -2 47 -8 126 -12 176 l-7 92 129 -5 c71 -2 641 -17 1268 -33z
m1866 -50 c135 -5 461 -15 725 -20 314 -8 511 -16 570 -26 162 -25 299 -37
379 -31 l78 5 -6 -51 c-3 -29 -36 -369 -72 -757 -36 -388 -68 -736 -72 -774
l-7 -70 -725 -207 c-399 -115 -750 -215 -780 -223 -30 -8 -84 -24 -120 -35
l-65 -20 75 5 c41 3 414 32 828 63 415 31 755 54 756 51 2 -3 -8 -108 -20
-235 -13 -126 -27 -263 -30 -303 -4 -40 -10 -74 -13 -76 -3 -2 -114 -9 -246
-15 -132 -7 -301 -16 -375 -21 -127 -9 -667 -35 -1243 -60 -143 -6 -261 -9
-264 -7 -2 3 0 304 6 669 6 365 16 996 22 1403 6 407 13 743 15 747 5 7 185 3
584 -12z m2620 -66 c806 -23 1395 -42 1396 -43 0 0 -34 -207 -77 -458 -43
-252 -88 -520 -101 -596 l-22 -139 -41 7 c-22 4 -51 9 -65 11 -14 3 -137 7
-275 10 -249 6 -250 6 -341 -20 -50 -15 -100 -29 -110 -31 -10 -3 -293 -84
-628 -180 -334 -97 -610 -174 -613 -172 -3 4 125 1420 143 1575 l6 52 102 0
c55 0 337 -7 626 -16z m2350 -64 c426 -11 831 -21 900 -23 104 -2 125 -4 123
-17 -14 -110 -428 -2337 -436 -2341 -5 -4 -103 -10 -216 -14 -113 -3 -327 -13
-476 -20 -148 -8 -460 -24 -693 -36 -232 -12 -425 -19 -429 -15 -8 8 103 666
114 677 7 7 602 59 669 59 17 0 17 0 0 86 -7 34 -61 135 -96 179 -75 95 -214
181 -377 234 -54 17 -89 35 -91 44 -2 8 42 281 97 606 56 326 101 594 101 596
0 6 -70 8 810 -15z m-1260 -1801 c0 -16 -88 -535 -103 -609 l-14 -65 -44 -3
c-57 -3 -334 -18 -674 -37 -148 -8 -346 -17 -440 -20 -93 -3 -253 -10 -355
-16 -370 -22 -430 -24 -433 -16 -5 15 54 612 61 619 5 4 1804 147 1980 157 12
0 22 -4 22 -10z m-8896 -193 c79 -46 157 -187 158 -282 1 -95 -63 -146 -137
-111 -65 31 -155 207 -155 303 0 39 5 51 34 80 19 19 40 34 47 34 7 0 31 -11
53 -24z m-2175 -361 c16 -8 40 -28 55 -45 22 -27 26 -41 26 -94 0 -166 -113
-420 -218 -491 -76 -51 -173 -22 -208 62 -32 76 -8 213 58 333 50 90 141 212
173 231 36 23 76 24 114 4z m12901 -169 c0 -2 -23 -126 -51 -277 -29 -151 -56
-301 -62 -334 -83 -482 -306 -1668 -314 -1673 -14 -9 -1782 -136 -1790 -129
-4 5 42 296 72 462 49 262 116 649 130 755 12 89 110 664 131 770 3 14 17 95
31 180 14 85 27 156 28 158 3 4 77 8 490 26 380 18 937 46 1105 56 137 8 230
11 230 6z m-1974 -113 c-2 -10 -19 -108 -36 -218 -18 -110 -54 -328 -81 -485
-26 -157 -80 -472 -118 -700 -39 -228 -89 -525 -112 -660 -22 -135 -42 -247
-45 -249 -9 -10 -1764 -133 -1764 -124 0 1 20 11 45 22 71 32 204 122 273 185
177 165 313 431 358 705 26 157 16 377 -24 531 -67 259 -222 524 -348 594 -26
14 -48 26 -50 26 -2 0 14 -24 36 -52 83 -109 118 -214 87 -262 -34 -52 -124
-56 -185 -8 l-23 18 28 301 27 301 86 6 c47 4 204 12 350 18 146 6 288 12 315
13 274 15 1041 51 1133 53 46 2 53 0 48 -15z m-2076 -90 c0 -35 -31 -317 -35
-321 -3 -3 -5 1 -5 9 0 13 -15 11 -91 -8 -186 -47 -330 -38 -378 23 -29 37
-37 104 -16 147 26 56 68 70 191 65 57 -2 104 -3 104 -2 0 0 -21 15 -46 33
-25 18 -42 36 -39 40 6 5 67 9 278 19 20 1 37 -1 37 -5z m-1080 -69 c6 -14 10
-43 10 -64 0 -30 -6 -43 -27 -60 -25 -20 -36 -22 -113 -17 -47 3 -94 8 -105
12 -11 4 8 -11 42 -33 152 -100 209 -184 173 -253 -27 -49 -122 -64 -191 -28
-63 31 -155 125 -216 218 -1 2 -39 -20 -84 -49 -122 -78 -182 -102 -271 -108
-75 -4 -78 -4 -107 25 -66 66 -59 158 16 207 39 26 137 56 182 56 33 0 16 14
-36 28 -22 7 -58 20 -80 29 -37 17 -31 18 372 39 226 11 413 22 418 23 4 0 12
-11 17 -25z m-1190 -47 c0 -8 -18 -19 -41 -26 -64 -19 -227 -106 -300 -160
l-65 -48 -12 -119 c-7 -65 -18 -141 -25 -169 l-13 -49 36 -38 c20 -20 52 -69
71 -108 21 -45 39 -70 50 -70 34 0 176 81 232 133 l57 53 0 -140 c0 -161 11
-141 -109 -201 -36 -18 -84 -38 -107 -44 l-40 -11 9 -82 c17 -164 -10 -347
-68 -465 l-36 -72 22 -123 c18 -99 23 -163 23 -325 l1 -202 65 -30 c36 -16
100 -41 143 -56 42 -15 77 -31 77 -35 0 -11 -74 -18 -295 -30 -104 -6 -552
-37 -995 -69 -443 -32 -806 -58 -806 -57 -3 2 -154 2440 -151 2442 1 1 2107
107 2245 113 21 1 32 -4 32 -12z m-2420 -125 c0 -10 34 -559 75 -1221 41 -662
74 -1205 73 -1207 -2 -1 -190 -16 -418 -33 -228 -17 -656 -49 -950 -71 -294
-22 -537 -36 -541 -32 -4 4 -10 28 -14 53 l-7 45 44 13 c129 39 249 136 302
245 30 62 30 62 6 191 -5 28 -9 96 -9 151 -1 73 -5 105 -15 113 -26 22 -78
153 -98 249 -39 184 -25 441 29 532 13 23 12 32 -13 105 -36 105 -45 268 -20
365 24 93 78 201 126 254 l42 46 -7 75 c-4 41 -3 75 2 76 30 2 1298 67 1341
68 44 1 52 -2 52 -17z m-4596 -224 c153 -744 654 -1909 987 -2299 52 -60 134
-110 229 -140 l55 -17 -35 -6 c-29 -4 -388 -30 -544 -39 l-38 -2 -388 1255
c-213 690 -386 1258 -383 1263 2 4 29 7 58 7 49 0 55 -3 59 -22z m7210 -200
c26 -37 20 -99 -13 -146 -51 -69 -55 -66 -48 38 4 51 7 106 7 122 0 25 2 27
19 18 11 -5 27 -20 35 -32z m1063 -79 c154 -74 255 -280 270 -549 5 -102 5
-106 -20 -132 -62 -67 -193 -62 -352 11 -129 60 -183 118 -226 243 -31 89 -31
240 -1 319 55 140 179 181 329 108z m1200 -78 c89 -41 170 -158 193 -280 29
-153 -16 -446 -78 -503 -37 -36 -119 -32 -203 9 -108 54 -103 15 -64 428 19
198 34 361 35 363 1 10 83 -2 117 -17z m-293 -317 c-12 -130 -25 -238 -27
-241 -3 -3 -13 19 -21 48 -21 69 -21 210 0 280 14 48 60 149 67 149 2 0 -7
-106 -19 -236z m-769 -1264 c16 -7 13 -9 -15 -9 -19 -1 -87 -6 -150 -11 -63
-5 -116 -8 -118 -6 -1 2 25 19 59 38 l61 35 72 -20 c39 -10 80 -23 91 -27z
m-5721 -376 l6 -41 -58 -6 c-31 -4 -106 -9 -167 -13 l-110 -6 65 32 c36 17 79
42 96 55 23 18 47 25 90 27 33 2 62 1 65 -2 4 -3 9 -24 13 -46z m-892 -106
c-7 -6 -164 -16 -158 -10 2 1 23 13 47 25 41 21 46 21 81 7 20 -8 34 -18 30
-22z"/>
<path d="M36353 25685 c0 -8 3 -13 5 -10 3 3 12 -1 21 -7 10 -8 9 -4 -3 10
-23 26 -23 26 -23 7z"/>
<path d="M36520 25571 c-13 -25 -13 -28 4 -28 8 0 11 8 8 20 -4 15 -2 18 8 12
9 -5 11 -4 6 3 -10 16 -14 15 -26 -7z"/>
<path d="M36520 25481 c0 -7 -5 -9 -12 -5 -7 5 -8 3 -3 -5 5 -9 10 -10 18 -2
6 6 8 14 4 18 -4 3 -7 1 -7 -6z"/>
<path d="M36355 25240 c-3 -5 -1 -10 4 -10 6 0 11 5 11 10 0 6 -2 10 -4 10 -3
0 -8 -4 -11 -10z"/>
<path d="M36205 25150 c-3 -5 -2 -10 4 -10 5 0 13 5 16 10 3 6 2 10 -4 10 -5
0 -13 -4 -16 -10z"/>
<path d="M36239 25133 c-13 -16 -12 -17 4 -4 16 13 21 21 13 21 -2 0 -10 -8
-17 -17z"/>
<path d="M36109 25083 c-13 -16 -12 -17 4 -4 16 13 21 21 13 21 -2 0 -10 -8
-17 -17z"/>
<path d="M36055 25010 c-3 -6 1 -7 9 -4 18 7 21 14 7 14 -6 0 -13 -4 -16 -10z"/>
<path d="M35990 25004 c0 -20 27 -37 36 -23 4 7 3 9 -4 5 -6 -3 -15 2 -21 11
-6 10 -11 13 -11 7z"/>
<path d="M35596 24772 c-3 -5 1 -9 9 -9 8 0 12 4 9 9 -3 4 -7 8 -9 8 -2 0 -6
-4 -9 -8z"/>
<path d="M35346 24622 c-3 -5 1 -9 9 -9 8 0 12 4 9 9 -3 4 -7 8 -9 8 -2 0 -6
-4 -9 -8z"/>
<path d="M35255 24560 c-3 -6 1 -7 9 -4 18 7 21 14 7 14 -6 0 -13 -4 -16 -10z"/>
<path d="M35140 24540 c-9 -6 -10 -10 -3 -10 6 0 15 5 18 10 8 12 4 12 -15 0z"/>
<path d="M35190 24530 c-9 -6 -10 -10 -3 -10 6 0 15 5 18 10 8 12 4 12 -15 0z"/>
<path d="M35106 24488 c3 -5 10 -6 15 -3 13 9 11 12 -6 12 -8 0 -12 -4 -9 -9z"/>
<path d="M34815 24390 c-3 -5 -2 -10 4 -10 5 0 13 5 16 10 3 6 2 10 -4 10 -5
0 -13 -4 -16 -10z"/>
<path d="M34878 24393 c7 -3 16 -2 19 1 4 3 -2 6 -13 5 -11 0 -14 -3 -6 -6z"/>
<path d="M34383 24225 c0 -8 4 -12 9 -9 5 3 6 10 3 15 -9 13 -12 11 -12 -6z"/>
<path d="M31017 24189 c7 -7 15 -10 18 -7 3 3 -2 9 -12 12 -14 6 -15 5 -6 -5z"/>
<path d="M31050 24186 c0 -2 8 -10 18 -17 15 -13 16 -12 3 4 -13 16 -21 21
-21 13z"/>
<path d="M31495 24050 c-3 -5 -1 -10 4 -10 6 0 11 5 11 10 0 6 -2 10 -4 10 -3
0 -8 -4 -11 -10z"/>
<path d="M33645 24040 c-3 -6 1 -7 9 -4 18 7 21 14 7 14 -6 0 -13 -4 -16 -10z"/>
<path d="M33588 24033 c7 -3 16 -2 19 1 4 3 -2 6 -13 5 -11 0 -14 -3 -6 -6z"/>
<path d="M33236 23981 c-4 -5 3 -7 14 -4 23 6 26 13 6 13 -8 0 -17 -4 -20 -9z"/>
<path d="M33280 23977 c0 -10 8 -17 18 -17 9 0 13 4 7 8 -5 4 -13 11 -17 16
-5 5 -8 2 -8 -7z"/>
<path d="M32005 23960 c-3 -6 1 -7 9 -4 18 7 21 14 7 14 -6 0 -13 -4 -16 -10z"/>
<path d="M33195 23960 c3 -5 8 -10 11 -10 2 0 4 5 4 10 0 6 -5 10 -11 10 -5 0
-7 -4 -4 -10z"/>
<path d="M32348 23953 c6 -2 18 -2 25 0 6 3 1 5 -13 5 -14 0 -19 -2 -12 -5z"/>
<path d="M32908 23953 c7 -3 16 -2 19 1 4 3 -2 6 -13 5 -11 0 -14 -3 -6 -6z"/>
<path d="M15767 7277 l-187 -112 2510 -3 c1380 -1 2510 -5 2509 -10 0 -4 -27
-27 -61 -51 -128 -94 -243 -280 -279 -453 -89 -435 171 -843 601 -943 86 -19
262 -19 353 1 95 21 257 100 333 163 201 167 308 440 276 704 -11 90 -43 201
-76 265 -20 39 21 58 -341 -161 -325 -197 -345 -205 -409 -146 -62 58 -62 60
73 472 67 202 121 372 121 377 0 7 -916 10 -2617 10 l-2618 0 -188 -113z"/>
</g>
</svg>
